<svg xmlns="http://www.w3.org/2000/svg" width="500" height="500" viewBox="0 0 500 500" fill="none"><metadata><rdf:RDF xmlns:rdf="http://www.w3.org/1999/02/22-rdf-syntax-ns#" xmlns:dc="http://purl.org/dc/elements/1.1/"><rdf:Description><dc:creator>RealFaviconGenerator</dc:creator><dc:source>https://realfavicongenerator.net</dc:source></rdf:Description></rdf:RDF></metadata><path d="M98.581 60.1935L332.093 293.706L293.706 332.093L60.1939 98.5806C57.6734 96.0601 55.674 93.0678 54.3099 89.7745C52.9458 86.4813 52.2437 82.9516 52.2437 79.3871C52.2437 75.8225 52.9458 72.2928 54.3099 68.9996C55.674 65.7064 57.6734 62.7141 60.1939 60.1935C62.7144 57.673 65.7067 55.6736 69 54.3095C72.2932 52.9454 75.8229 52.2433 79.3874 52.2433C82.952 52.2433 86.4817 52.9454 89.7749 54.3095C93.0681 55.6736 96.0605 57.673 98.581 60.1935Z" fill="#D7182E"></path><path opacity="0.93" d="M66.7934 55.3359C64.36 56.6114 62.1346 58.2494 60.1935 60.1937C57.673 62.7142 55.6736 65.7065 54.3095 68.9998C52.9454 72.293 52.2433 75.8226 52.2433 79.3872C52.2433 82.9518 52.9454 86.4814 54.3095 89.7747C55.6736 93.0679 57.673 96.0602 60.1935 98.5808L293.706 332.093L305.163 320.635L71.6512 87.1231C67.5615 83.0329 64.8848 77.7436 64.011 72.0259C63.1372 66.3082 64.1121 60.4609 66.7934 55.3359Z" fill="#890C27"></path><path opacity="0.67" d="M98.581 60.1935C96.0605 57.673 93.0681 55.6736 89.7749 54.3095C86.4817 52.9454 82.952 52.2433 79.3874 52.2433C75.8229 52.2433 72.2932 52.9454 69 54.3095C65.7067 55.6736 62.7144 57.673 60.1939 60.1935C58.7822 61.6124 57.5316 63.183 56.465 64.8767C61.6713 61.5783 67.8454 60.1505 73.9712 60.8282C80.097 61.5059 85.8096 64.2488 90.169 68.6056L323.681 302.118L332.093 293.706L98.581 60.1935Z" fill="#FFA663"></path><path d="M98.581 60.1935L332.093 293.706L293.706 332.093L60.1939 98.5806C57.6734 96.0601 55.674 93.0678 54.3099 89.7745C52.9458 86.4813 52.2437 82.9516 52.2437 79.3871C52.2437 75.8225 52.9458 72.2928 54.3099 68.9996C55.674 65.7064 57.6734 62.7141 60.1939 60.1935C62.7144 57.673 65.7067 55.6736 69 54.3095C72.2932 52.9454 75.8229 52.2433 79.3874 52.2433C82.952 52.2433 86.4817 52.9454 89.7749 54.3095C93.0681 55.6736 96.0605 57.673 98.581 60.1935Z" stroke="#020129" stroke-width="8" stroke-linecap="round" stroke-linejoin="round"></path><path d="M352.774 302.8L337.884 287.91L287.91 337.885L302.8 352.775L352.774 302.8Z" fill="#FFDC7B"></path><path opacity="0.43" d="M352.861 302.71L337.971 287.82L326.036 299.755L340.926 314.645L352.861 302.71Z" fill="white"></path><path d="M317.988 337.585L303.098 322.695L287.823 337.97L302.713 352.86L317.988 337.585Z" fill="#F48D31"></path><path d="M352.774 302.8L337.884 287.91L287.91 337.885L302.8 352.775L352.774 302.8Z" stroke="#020129" stroke-width="8" stroke-linecap="round" stroke-linejoin="round"></path><path d="M142.203 92.226L127.313 77.3359L77.3381 127.311L92.2281 142.201L142.203 92.226Z" fill="#FFDC7B"></path><path opacity="0.43" d="M142.203 92.226L127.313 77.3359L115.378 89.2707L130.268 104.161L142.203 92.226Z" fill="white"></path><path d="M107.329 127.101L92.4387 112.211L77.1639 127.486L92.054 142.376L107.329 127.101Z" fill="#F48D31"></path><path d="M142.203 92.226L127.313 77.3359L77.3381 127.311L92.2281 142.201L142.203 92.226Z" stroke="#020129" stroke-width="8" stroke-linecap="round" stroke-linejoin="round"></path><path d="M316.301 339.383L326.036 390.82L425.933 425.93L390.594 325.804L339.385 316.299L316.301 339.383Z" fill="#F48D31"></path><path d="M316.301 339.385L326.035 390.82L425.933 425.931L327.844 327.842L316.301 339.385Z" fill="#EE6E31"></path><path d="M322.902 332.783L343.908 375.282L425.933 425.931L326.036 390.821L316.301 339.385L322.902 332.783Z" fill="#E65331"></path><path d="M332.583 322.626L381.941 336.773L416.941 416.942L390.621 325.76L339.185 316.024L332.583 322.626Z" fill="#FFE085"></path><path d="M316.301 339.383L326.036 390.82L425.933 425.93L390.594 325.804L339.385 316.299L316.301 339.383Z" stroke="#020129" stroke-width="8" stroke-linecap="round" stroke-linejoin="round"></path><path d="M426.318 426.318L369.467 369.467" stroke="#020129" stroke-width="8" stroke-linecap="round" stroke-linejoin="round"></path><path d="M361.912 378.738C366.558 383.384 374.09 383.384 378.736 378.738C383.382 374.092 383.382 366.56 378.736 361.914C374.09 357.268 366.558 357.268 361.912 361.914C357.266 366.56 357.266 374.092 361.912 378.738Z" fill="#020129"></path></svg>